<?xml version="1.0" encoding="UTF-8"?>
<svg width="auto" height="3420" style="overflow:visible " version="1.1" xmlns="http://www.w3.org/2000/svg">
<rect x="10" y="10" width="200" height="80" style="fill:white;stroke:black;stroke-width:1" />
<text x="20" y="20" font-size="10" style="fill:blue"> Luis Fernandez Suarez </text>
<text x="20" y="30" font-size="8" style="fill:black"> Lugar de nacimiento: Gijon"</text>
<text x="20" y="40" font-size="8" style="fill:black"> fecha de nacimiento:  2000-02-03</text>
<text x="20" y="50" font-size="8" style="fill:black"> c. de nacimiento: Puto cueva</text>
<text x="20" y="60" font-size="8" style="fill:black"> Lugar de fallecimiento:  - </text>
<text x="20" y="70" font-size="8" style="fill:black"> fecha de fallecimiento:  - </text>
<text x="20" y="80" font-size="8" style="fill:black"> c. de fallecimiento:  - </text>
<rect x="210" y="200" width="200" height="80" style="fill:white;stroke:black;stroke-width:1" />
<text x="220" y="210" font-size="10" style="fill:blue"> Jose Fernandez Alvarez </text>
<text x="220" y="220" font-size="8" style="fill:black"> Lugar de nacimiento: "Aviles"</text>
<text x="220" y="230" font-size="8" style="fill:black"> fecha de nacimiento:  1955-02-03 </text>
<text x="220" y="240" font-size="8" style="fill:black"> c. de nacimiento: Puto cueva</text>
<text x="220" y="250" font-size="8" style="fill:black"> Lugar de fallecimiento:  - </text>
<text x="220" y="260" font-size="8" style="fill:black"> fecha de fallecimiento:  - </text>
<text x="220" y="270" font-size="8" style="fill:black"> c. de fallecimiento:  - </text>
<path d="M 110.0 90 v 150.0 h 100.0" style="fill:transparent;stroke:black" />
<rect x="410" y="300" width="200" height="80" style="fill:white;stroke:black;stroke-width:1" />
<text x="420" y="310" font-size="10" style="fill:blue"> Antonio Fernandez </text>
<text x="420" y="320" font-size="8" style="fill:black"> Lugar de nacimiento: "La Fueja"</text>
<text x="420" y="330" font-size="8" style="fill:black"> fecha de nacimiento:  1900-02-01 </text>
<text x="420" y="340" font-size="8" style="fill:black"> c. de nacimiento: Puto cueva</text>
<text x="420" y="350" font-size="8" style="fill:black"> Lugar de fallecimiento: "Moutas"</text>
<text x="420" y="360" font-size="8" style="fill:black"> fecha de fallecimiento:  1975-12-15 </text>
<text x="420" y="370" font-size="8" style="fill:black"> c. de fallecimiento: Puto cueva</text>
<path d="M 310.0 280 v 60.0 h 100.0" style="fill:transparent;stroke:black" />
<rect x="610" y="400" width="200" height="80" style="fill:white;stroke:black;stroke-width:1" />
<text x="620" y="410" font-size="10" style="fill:blue"> Ramon Fernandez </text>
<text x="620" y="420" font-size="8" style="fill:black"> Lugar de nacimiento: "Rubiano"</text>
<text x="620" y="430" font-size="8" style="fill:black"> fecha de nacimiento:  1899-09-10 </text>
<text x="620" y="440" font-size="8" style="fill:black"> c. de nacimiento: Puto cueva</text>
<text x="620" y="450" font-size="8" style="fill:black"> Lugar de fallecimiento: "Moutas"</text>
<text x="620" y="460" font-size="8" style="fill:black"> fecha de fallecimiento:  1981-05-23 </text>
<text x="620" y="470" font-size="8" style="fill:black"> c. de fallecimiento: Puto cueva</text>
<path d="M 510.0 380 v 60.0 h 100.0" style="fill:transparent;stroke:black" />
<rect x="610" y="500" width="200" height="80" style="fill:white;stroke:black;stroke-width:1" />
<text x="620" y="510" font-size="10" style="fill:blue"> Carlota Lopez </text>
<text x="620" y="520" font-size="8" style="fill:black"> Lugar de nacimiento: "El LLobio"</text>
<text x="620" y="530" font-size="8" style="fill:black"> fecha de nacimiento:  1903-01-15 </text>
<text x="620" y="540" font-size="8" style="fill:black"> c. de nacimiento: Puto cueva</text>
<text x="620" y="550" font-size="8" style="fill:black"> Lugar de fallecimiento: "El LLobio"</text>
<text x="620" y="560" font-size="8" style="fill:black"> fecha de fallecimiento:  1943-06-30 </text>
<text x="620" y="570" font-size="8" style="fill:black"> c. de fallecimiento: Puto cueva</text>
<path d="M 510.0 380 v 160.0 h 100.0" style="fill:transparent;stroke:black" />
<rect x="410" y="600" width="200" height="80" style="fill:white;stroke:black;stroke-width:1" />
<text x="420" y="610" font-size="10" style="fill:blue"> Josefa Alvarez </text>
<text x="420" y="620" font-size="8" style="fill:black"> Lugar de nacimiento: "Moutas, Grado"</text>
<text x="420" y="630" font-size="8" style="fill:black"> fecha de nacimiento:  1922-08-01 </text>
<text x="420" y="640" font-size="8" style="fill:black"> c. de nacimiento: Puto cueva</text>
<text x="420" y="650" font-size="8" style="fill:black"> Lugar de fallecimiento: "Oviedo"</text>
<text x="420" y="660" font-size="8" style="fill:black"> fecha de fallecimiento:  2002-05-23 </text>
<text x="420" y="670" font-size="8" style="fill:black"> c. de fallecimiento: Puto cueva</text>
<path d="M 310.0 280 v 360.0 h 100.0" style="fill:transparent;stroke:black" />
<rect x="610" y="700" width="200" height="80" style="fill:white;stroke:black;stroke-width:1" />
<text x="620" y="710" font-size="10" style="fill:blue"> Casimiro Alvarez </text>
<text x="620" y="720" font-size="8" style="fill:black"> Lugar de nacimiento: "Cornellana"</text>
<text x="620" y="730" font-size="8" style="fill:black"> fecha de nacimiento:  1895-04-21 </text>
<text x="620" y="740" font-size="8" style="fill:black"> c. de nacimiento: Puto cueva</text>
<text x="620" y="750" font-size="8" style="fill:black"> Lugar de fallecimiento: "Belmonte"</text>
<text x="620" y="760" font-size="8" style="fill:black"> fecha de fallecimiento:  1970-05-23 </text>
<text x="620" y="770" font-size="8" style="fill:black"> c. de fallecimiento: Puto cueva</text>
<path d="M 510.0 680 v 60.0 h 100.0" style="fill:transparent;stroke:black" />
<rect x="610" y="800" width="200" height="80" style="fill:white;stroke:black;stroke-width:1" />
<text x="620" y="810" font-size="10" style="fill:blue"> Teresa Martinez </text>
<text x="620" y="820" font-size="8" style="fill:black"> Lugar de nacimiento: "El Bondeu"</text>
<text x="620" y="830" font-size="8" style="fill:black"> fecha de nacimiento:  1900-12-13 </text>
<text x="620" y="840" font-size="8" style="fill:black"> c. de nacimiento: Puto cueva</text>
<text x="620" y="850" font-size="8" style="fill:black"> Lugar de fallecimiento: "Moutas"</text>
<text x="620" y="860" font-size="8" style="fill:black"> fecha de fallecimiento:  1968-05-23 </text>
<text x="620" y="870" font-size="8" style="fill:black"> c. de fallecimiento: Puto cueva</text>
<path d="M 510.0 680 v 160.0 h 100.0" style="fill:transparent;stroke:black" />
<rect x="210" y="900" width="200" height="80" style="fill:white;stroke:black;stroke-width:1" />
<text x="220" y="910" font-size="10" style="fill:blue"> Angeles Suarez Garcia </text>
<text x="220" y="920" font-size="8" style="fill:black"> Lugar de nacimiento: "Gijon"</text>
<text x="220" y="930" font-size="8" style="fill:black"> fecha de nacimiento:  1975-02-03 </text>
<text x="220" y="940" font-size="8" style="fill:black"> c. de nacimiento: Puto cueva</text>
<text x="220" y="950" font-size="8" style="fill:black"> Lugar de fallecimiento:  - </text>
<text x="220" y="960" font-size="8" style="fill:black"> fecha de fallecimiento:  - </text>
<text x="220" y="970" font-size="8" style="fill:black"> c. de fallecimiento:  - </text>
<path d="M 110.0 90 v 850.0 h 100.0" style="fill:transparent;stroke:black" />
<rect x="410" y="1000" width="200" height="80" style="fill:white;stroke:black;stroke-width:1" />
<text x="420" y="1010" font-size="10" style="fill:blue"> Luis Suarez </text>
<text x="420" y="1020" font-size="8" style="fill:black"> Lugar de nacimiento: "Gijon"</text>
<text x="420" y="1030" font-size="8" style="fill:black"> fecha de nacimiento:  1941-01-22 </text>
<text x="420" y="1040" font-size="8" style="fill:black"> c. de nacimiento: Puto cueva</text>
<text x="420" y="1050" font-size="8" style="fill:black"> Lugar de fallecimiento: "Oviedo"</text>
<text x="420" y="1060" font-size="8" style="fill:black"> fecha de fallecimiento:  2001-04-03 </text>
<text x="420" y="1070" font-size="8" style="fill:black"> c. de fallecimiento: Puto cueva</text>
<path d="M 310.0 980 v 60.0 h 100.0" style="fill:transparent;stroke:black" />
<rect x="610" y="1100" width="200" height="80" style="fill:white;stroke:black;stroke-width:1" />
<text x="620" y="1110" font-size="10" style="fill:blue"> Manuel Suarez </text>
<text x="620" y="1120" font-size="8" style="fill:black"> Lugar de nacimiento: "Gijon"</text>
<text x="620" y="1130" font-size="8" style="fill:black"> fecha de nacimiento:  1899-11-12 </text>
<text x="620" y="1140" font-size="8" style="fill:black"> c. de nacimiento: Puto cueva</text>
<text x="620" y="1150" font-size="8" style="fill:black"> Lugar de fallecimiento: "Gijon"</text>
<text x="620" y="1160" font-size="8" style="fill:black"> fecha de fallecimiento:  1935-05-12 </text>
<text x="620" y="1170" font-size="8" style="fill:black"> c. de fallecimiento: Puto cueva</text>
<path d="M 510.0 1080 v 60.0 h 100.0" style="fill:transparent;stroke:black" />
<rect x="610" y="1200" width="200" height="80" style="fill:white;stroke:black;stroke-width:1" />
<text x="620" y="1210" font-size="10" style="fill:blue"> Visitacion Alvarez </text>
<text x="620" y="1220" font-size="8" style="fill:black"> Lugar de nacimiento: "Gijon"</text>
<text x="620" y="1230" font-size="8" style="fill:black"> fecha de nacimiento:  1905-03-17 </text>
<text x="620" y="1240" font-size="8" style="fill:black"> c. de nacimiento: Puto cueva</text>
<text x="620" y="1250" font-size="8" style="fill:black"> Lugar de fallecimiento: "Gijon"</text>
<text x="620" y="1260" font-size="8" style="fill:black"> fecha de fallecimiento:  1970-11-11 </text>
<text x="620" y="1270" font-size="8" style="fill:black"> c. de fallecimiento: Puto cueva</text>
<path d="M 510.0 1080 v 160.0 h 100.0" style="fill:transparent;stroke:black" />
<rect x="410" y="1300" width="200" height="80" style="fill:white;stroke:black;stroke-width:1" />
<text x="420" y="1310" font-size="10" style="fill:blue"> Angeles Garcia </text>
<text x="420" y="1320" font-size="8" style="fill:black"> Lugar de nacimiento: "Gijon"</text>
<text x="420" y="1330" font-size="8" style="fill:black"> fecha de nacimiento:  1923-09-02 </text>
<text x="420" y="1340" font-size="8" style="fill:black"> c. de nacimiento: Puto cueva</text>
<text x="420" y="1350" font-size="8" style="fill:black"> Lugar de fallecimiento: "Oviedo"</text>
<text x="420" y="1360" font-size="8" style="fill:black"> fecha de fallecimiento:  2010-02-09 </text>
<text x="420" y="1370" font-size="8" style="fill:black"> c. de fallecimiento: Puto cueva</text>
<path d="M 310.0 980 v 360.0 h 100.0" style="fill:transparent;stroke:black" />
<rect x="610" y="1400" width="200" height="80" style="fill:white;stroke:black;stroke-width:1" />
<text x="620" y="1410" font-size="10" style="fill:blue"> Manuel Meana </text>
<text x="620" y="1420" font-size="8" style="fill:black"> Lugar de nacimiento: "Gijon"</text>
<text x="620" y="1430" font-size="8" style="fill:black"> fecha de nacimiento:  1897-05-26 </text>
<text x="620" y="1440" font-size="8" style="fill:black"> c. de nacimiento: Puto cueva</text>
<text x="620" y="1450" font-size="8" style="fill:black"> Lugar de fallecimiento: "Gijon"</text>
<text x="620" y="1460" font-size="8" style="fill:black"> fecha de fallecimiento:  25-10-1936 </text>
<text x="620" y="1470" font-size="8" style="fill:black"> c. de fallecimiento: Puto cueva</text>
<path d="M 510.0 1380 v 60.0 h 100.0" style="fill:transparent;stroke:black" />
<rect x="610" y="1500" width="200" height="80" style="fill:white;stroke:black;stroke-width:1" />
<text x="620" y="1510" font-size="10" style="fill:blue"> Angeles Rodriguez </text>
<text x="620" y="1520" font-size="8" style="fill:black"> Lugar de nacimiento: "Gijon"</text>
<text x="620" y="1530" font-size="8" style="fill:black"> fecha de nacimiento:  1898-01-12 </text>
<text x="620" y="1540" font-size="8" style="fill:black"> c. de nacimiento: Puto cueva</text>
<text x="620" y="1550" font-size="8" style="fill:black"> Lugar de fallecimiento: "Gijon"</text>
<text x="620" y="1560" font-size="8" style="fill:black"> fecha de fallecimiento:  1980-12-20 </text>
<text x="620" y="1570" font-size="8" style="fill:black"> c. de fallecimiento: Puto cueva</text>
<path d="M 510.0 1380 v 160.0 h 100.0" style="fill:transparent;stroke:black" />
</svg>
