<?xml version="1.0" encoding="utf-8"?><svg width="auto" height="2320" style="overflow:visible " version="1.1" xmlns="http://www.w3.org/2000/svg"><rect x="20" y="20" width="200" height="40" style="fill:white;stroke:black;stroke-width:1" /><text x="30" y="30" font-size="10" style="fill:blue">familiares</text><rect x="240" y="20" width="200" height="40" style="fill:white;stroke:black;stroke-width:1" /><text x="250" y="30" font-size="10" style="fill:blue">familiar</text><path d="M220 40 C240 40 220 40 240 40" style="fill:transparent;stroke:black" /><text x="250" y="40" font-size="8" style="fill:black">nombre: Luis</text><text x="250" y="50" font-size="8" style="fill:black">apellido: Fernandez</text><rect x="460" y="20" width="200" height="40" style="fill:white;stroke:black;stroke-width:1" /><text x="470" y="30" font-size="10" style="fill:blue">dataFamiliar</text><path d="M440 40 C460 40 440 40 460 40" style="fill:transparent;stroke:black" /><rect x="680" y="20" width="200" height="40" style="fill:white;stroke:black;stroke-width:1" /><text x="690" y="30" font-size="10" style="fill:blue">nacimiento</text><path d="M660 40 C680 40 660 40 680 40" style="fill:transparent;stroke:black" /><rect x="900" y="20" width="200" height="40" style="fill:white;stroke:black;stroke-width:1" /><text x="910" y="30" font-size="10" style="fill:blue">fecha</text><path d="M880 40 C900 40 880 40 900 40" style="fill:transparent;stroke:black" /><text x="910" y="40" font-size="8" style="fill:black">nombre: Fecha de Nacimiento</text><rect x="966" y="20" width="137" height="40" style="fill:green;stroke:black;stroke-width:1" /><text x="976" y="30" font-size="8" style="fill:white"> 03/02/2000 </text><rect x="900" y="70" width="200" height="40" style="fill:white;stroke:black;stroke-width:1" /><text x="910" y="80" font-size="10" style="fill:blue">lugar</text><path d="M880 40 C900 40 880 90 900 90" style="fill:transparent;stroke:black" /><rect x="966" y="70" width="137" height="40" style="fill:green;stroke:black;stroke-width:1" /><text x="976" y="80" font-size="8" style="fill:white">Gijon"</text><rect x="900" y="120" width="200" height="40" style="fill:white;stroke:black;stroke-width:1" /><text x="910" y="130" font-size="10" style="fill:blue">coordenadas</text><path d="M880 40 C900 40 880 140 900 140" style="fill:transparent;stroke:black" /><text x="910" y="140" font-size="8" style="fill:black">nombre: Lugar de nacimiento</text><text x="910" y="150" font-size="8" style="fill:black">latitud: 1</text><text x="910" y="160" font-size="8" style="fill:black">longitud: 2</text><text x="910" y="170" font-size="8" style="fill:black">altitud: 3</text><rect x="680" y="220" width="200" height="40" style="fill:white;stroke:black;stroke-width:1" /><text x="690" y="230" font-size="10" style="fill:blue">retrato</text><path d="M660 40 C680 40 660 240 680 240" style="fill:transparent;stroke:black" /><text x="690" y="240" font-size="8" style="fill:black">filename: foto-luis.jpg</text><rect x="746" y="220" width="137" height="40" style="fill:green;stroke:black;stroke-width:1" /><text x="756" y="230" font-size="8" style="fill:white">Retrato de Luis</text><rect x="680" y="270" width="200" height="40" style="fill:white;stroke:black;stroke-width:1" /><text x="690" y="280" font-size="10" style="fill:blue">retrato</text><path d="M660 40 C680 40 660 290 680 290" style="fill:transparent;stroke:black" /><text x="690" y="290" font-size="8" style="fill:black">filename: foto-luis2.jpg</text><rect x="746" y="270" width="137" height="40" style="fill:green;stroke:black;stroke-width:1" /><text x="756" y="280" font-size="8" style="fill:white">Segundo Retrato de Luis</text><rect x="680" y="320" width="200" height="40" style="fill:white;stroke:black;stroke-width:1" /><text x="690" y="330" font-size="10" style="fill:blue">video</text><path d="M660 40 C680 40 660 340 680 340" style="fill:transparent;stroke:black" /><text x="690" y="340" font-size="8" style="fill:black">filename: video-luis1.mp4</text><rect x="746" y="320" width="137" height="40" style="fill:green;stroke:black;stroke-width:1" /><text x="756" y="330" font-size="8" style="fill:white"> Primer Video de Luis</text><rect x="680" y="370" width="200" height="40" style="fill:white;stroke:black;stroke-width:1" /><text x="690" y="380" font-size="10" style="fill:blue">video</text><path d="M660 40 C680 40 660 390 680 390" style="fill:transparent;stroke:black" /><text x="690" y="390" font-size="8" style="fill:black">filename: video-luis2.mp4</text><rect x="746" y="370" width="137" height="40" style="fill:green;stroke:black;stroke-width:1" /><text x="756" y="380" font-size="8" style="fill:white"> Segundo Video de Luis</text><rect x="460" y="470" width="200" height="40" style="fill:white;stroke:black;stroke-width:1" /><text x="470" y="480" font-size="10" style="fill:blue">familiar</text><path d="M440 40 C460 40 440 490 460 490" style="fill:transparent;stroke:black" /><text x="470" y="490" font-size="8" style="fill:black">nombre: Jose</text><text x="470" y="500" font-size="8" style="fill:black">apellido: Fernandez</text><rect x="680" y="470" width="200" height="40" style="fill:white;stroke:black;stroke-width:1" /><text x="690" y="480" font-size="10" style="fill:blue">dataFamiliar</text><path d="M660 490 C680 490 660 490 680 490" style="fill:transparent;stroke:black" /><rect x="900" y="470" width="200" height="40" style="fill:white;stroke:black;stroke-width:1" /><text x="910" y="480" font-size="10" style="fill:blue">fecha</text><path d="M880 490 C900 490 880 490 900 490" style="fill:transparent;stroke:black" /><text x="910" y="490" font-size="8" style="fill:black">nombre: Fecha de Nacimiento</text><rect x="966" y="470" width="137" height="40" style="fill:green;stroke:black;stroke-width:1" /><text x="976" y="480" font-size="8" style="fill:white"> 03/02/1975 </text><rect x="900" y="520" width="200" height="40" style="fill:white;stroke:black;stroke-width:1" /><text x="910" y="530" font-size="10" style="fill:blue">lugar</text><path d="M880 490 C900 490 880 540 900 540" style="fill:transparent;stroke:black" /><rect x="966" y="520" width="137" height="40" style="fill:green;stroke:black;stroke-width:1" /><text x="976" y="530" font-size="8" style="fill:white">"Aviles"</text><rect x="900" y="570" width="200" height="40" style="fill:white;stroke:black;stroke-width:1" /><text x="910" y="580" font-size="10" style="fill:blue">coordenadas</text><path d="M880 490 C900 490 880 590 900 590" style="fill:transparent;stroke:black" /><text x="910" y="590" font-size="8" style="fill:black">nombre: Lugar de nacimiento</text><text x="910" y="600" font-size="8" style="fill:black">latitud: 3</text><text x="910" y="610" font-size="8" style="fill:black">longitud: 3</text><text x="910" y="620" font-size="8" style="fill:black">altitud: 4</text><rect x="900" y="620" width="200" height="40" style="fill:white;stroke:black;stroke-width:1" /><text x="910" y="630" font-size="10" style="fill:blue">retrato</text><path d="M880 490 C900 490 880 640 900 640" style="fill:transparent;stroke:black" /><text x="910" y="640" font-size="8" style="fill:black">filename: foto-jose.jpg</text><rect x="966" y="620" width="137" height="40" style="fill:green;stroke:black;stroke-width:1" /><text x="976" y="630" font-size="8" style="fill:white">Retrato de Jose</text><rect x="680" y="720" width="200" height="40" style="fill:white;stroke:black;stroke-width:1" /><text x="690" y="730" font-size="10" style="fill:blue">familiar</text><path d="M660 490 C680 490 660 740 680 740" style="fill:transparent;stroke:black" /><text x="690" y="740" font-size="8" style="fill:black">nombre: Manuel</text><text x="690" y="750" font-size="8" style="fill:black">apellido: Fernandez</text><rect x="900" y="720" width="200" height="40" style="fill:white;stroke:black;stroke-width:1" /><text x="910" y="730" font-size="10" style="fill:blue">dataFamiliar</text><path d="M880 740 C900 740 880 740 900 740" style="fill:transparent;stroke:black" /><rect x="1120" y="720" width="200" height="40" style="fill:white;stroke:black;stroke-width:1" /><text x="1130" y="730" font-size="10" style="fill:blue">nacimiento</text><path d="M1100 740 C1120 740 1100 740 1120 740" style="fill:transparent;stroke:black" /><rect x="1340" y="720" width="200" height="40" style="fill:white;stroke:black;stroke-width:1" /><text x="1350" y="730" font-size="10" style="fill:blue">fecha</text><path d="M1320 740 C1340 740 1320 740 1340 740" style="fill:transparent;stroke:black" /><text x="1350" y="740" font-size="8" style="fill:black">nombre: Fecha de Nacimiento</text><rect x="1406" y="720" width="137" height="40" style="fill:green;stroke:black;stroke-width:1" /><text x="1416" y="730" font-size="8" style="fill:white"> 03/02/1930 </text><rect x="1340" y="770" width="200" height="40" style="fill:white;stroke:black;stroke-width:1" /><text x="1350" y="780" font-size="10" style="fill:blue">lugar</text><path d="M1320 740 C1340 740 1320 790 1340 790" style="fill:transparent;stroke:black" /><rect x="1406" y="770" width="137" height="40" style="fill:green;stroke:black;stroke-width:1" /><text x="1416" y="780" font-size="8" style="fill:white">"Aviles"</text><rect x="1340" y="820" width="200" height="40" style="fill:white;stroke:black;stroke-width:1" /><text x="1350" y="830" font-size="10" style="fill:blue">coordenadas</text><path d="M1320 740 C1340 740 1320 840 1340 840" style="fill:transparent;stroke:black" /><text x="1350" y="840" font-size="8" style="fill:black">nombre: Lugar de nacimiento</text><text x="1350" y="850" font-size="8" style="fill:black">latitud: 3</text><text x="1350" y="860" font-size="8" style="fill:black">longitud: 3</text><text x="1350" y="870" font-size="8" style="fill:black">altitud: 4</text><rect x="1120" y="920" width="200" height="40" style="fill:white;stroke:black;stroke-width:1" /><text x="1130" y="930" font-size="10" style="fill:blue">fallecimiento</text><path d="M1100 740 C1120 740 1100 940 1120 940" style="fill:transparent;stroke:black" /><rect x="1340" y="920" width="200" height="40" style="fill:white;stroke:black;stroke-width:1" /><text x="1350" y="930" font-size="10" style="fill:blue">fecha</text><path d="M1320 940 C1340 940 1320 940 1340 940" style="fill:transparent;stroke:black" /><text x="1350" y="940" font-size="8" style="fill:black">nombre: Fecha de Fallecimiento</text><rect x="1406" y="920" width="137" height="40" style="fill:green;stroke:black;stroke-width:1" /><text x="1416" y="930" font-size="8" style="fill:white"> 15/12/2005 </text><rect x="1340" y="970" width="200" height="40" style="fill:white;stroke:black;stroke-width:1" /><text x="1350" y="980" font-size="10" style="fill:blue">lugar</text><path d="M1320 940 C1340 940 1320 990 1340 990" style="fill:transparent;stroke:black" /><rect x="1406" y="970" width="137" height="40" style="fill:green;stroke:black;stroke-width:1" /><text x="1416" y="980" font-size="8" style="fill:white">"Oviedo"</text><rect x="1340" y="1020" width="200" height="40" style="fill:white;stroke:black;stroke-width:1" /><text x="1350" y="1030" font-size="10" style="fill:blue">coordenadas</text><path d="M1320 940 C1340 940 1320 1040 1340 1040" style="fill:transparent;stroke:black" /><text x="1350" y="1040" font-size="8" style="fill:black">nombre: Lugar de nacimiento</text><text x="1350" y="1050" font-size="8" style="fill:black">latitud: 6</text><text x="1350" y="1060" font-size="8" style="fill:black">longitud: 6</text><text x="1350" y="1070" font-size="8" style="fill:black">altitud: 1</text><rect x="1120" y="1120" width="200" height="40" style="fill:white;stroke:black;stroke-width:1" /><text x="1130" y="1130" font-size="10" style="fill:blue">retrato</text><path d="M1100 740 C1120 740 1100 1140 1120 1140" style="fill:transparent;stroke:black" /><text x="1130" y="1140" font-size="8" style="fill:black">filename: foto-manuel.jpg</text><rect x="1186" y="1120" width="137" height="40" style="fill:green;stroke:black;stroke-width:1" /><text x="1196" y="1130" font-size="8" style="fill:white">Retrato de Manuel</text><rect x="680" y="1270" width="200" height="40" style="fill:white;stroke:black;stroke-width:1" /><text x="690" y="1280" font-size="10" style="fill:blue">familiar</text><path d="M660 490 C680 490 660 1290 680 1290" style="fill:transparent;stroke:black" /><text x="690" y="1290" font-size="8" style="fill:black">nombre: Concepcion</text><text x="690" y="1300" font-size="8" style="fill:black">apellido: Alvarez</text><rect x="900" y="1270" width="200" height="40" style="fill:white;stroke:black;stroke-width:1" /><text x="910" y="1280" font-size="10" style="fill:blue">dataFamiliar</text><path d="M880 1290 C900 1290 880 1290 900 1290" style="fill:transparent;stroke:black" /><rect x="1120" y="1270" width="200" height="40" style="fill:white;stroke:black;stroke-width:1" /><text x="1130" y="1280" font-size="10" style="fill:blue">nacimiento</text><path d="M1100 1290 C1120 1290 1100 1290 1120 1290" style="fill:transparent;stroke:black" /><rect x="1340" y="1270" width="200" height="40" style="fill:white;stroke:black;stroke-width:1" /><text x="1350" y="1280" font-size="10" style="fill:blue">fecha</text><path d="M1320 1290 C1340 1290 1320 1290 1340 1290" style="fill:transparent;stroke:black" /><text x="1350" y="1290" font-size="8" style="fill:black">nombre: Fecha de Nacimiento</text><rect x="1406" y="1270" width="137" height="40" style="fill:green;stroke:black;stroke-width:1" /><text x="1416" y="1280" font-size="8" style="fill:white"> 01/08/1934 </text><rect x="1340" y="1320" width="200" height="40" style="fill:white;stroke:black;stroke-width:1" /><text x="1350" y="1330" font-size="10" style="fill:blue">lugar</text><path d="M1320 1290 C1340 1290 1320 1340 1340 1340" style="fill:transparent;stroke:black" /><rect x="1406" y="1320" width="137" height="40" style="fill:green;stroke:black;stroke-width:1" /><text x="1416" y="1330" font-size="8" style="fill:white">"Aviles"</text><rect x="1340" y="1370" width="200" height="40" style="fill:white;stroke:black;stroke-width:1" /><text x="1350" y="1380" font-size="10" style="fill:blue">coordenadas</text><path d="M1320 1290 C1340 1290 1320 1390 1340 1390" style="fill:transparent;stroke:black" /><text x="1350" y="1390" font-size="8" style="fill:black">nombre: Lugar de nacimiento</text><text x="1350" y="1400" font-size="8" style="fill:black">latitud: 3</text><text x="1350" y="1410" font-size="8" style="fill:black">longitud: 3</text><text x="1350" y="1420" font-size="8" style="fill:black">altitud: 4</text><rect x="1120" y="1470" width="200" height="40" style="fill:white;stroke:black;stroke-width:1" /><text x="1130" y="1480" font-size="10" style="fill:blue">fallecimiento</text><path d="M1100 1290 C1120 1290 1100 1490 1120 1490" style="fill:transparent;stroke:black" /><rect x="1340" y="1470" width="200" height="40" style="fill:white;stroke:black;stroke-width:1" /><text x="1350" y="1480" font-size="10" style="fill:blue">fecha</text><path d="M1320 1490 C1340 1490 1320 1490 1340 1490" style="fill:transparent;stroke:black" /><text x="1350" y="1490" font-size="8" style="fill:black">nombre: Fecha de Fallecimiento</text><rect x="1406" y="1470" width="137" height="40" style="fill:green;stroke:black;stroke-width:1" /><text x="1416" y="1480" font-size="8" style="fill:white"> 23/05/2012 </text><rect x="1340" y="1520" width="200" height="40" style="fill:white;stroke:black;stroke-width:1" /><text x="1350" y="1530" font-size="10" style="fill:blue">lugar</text><path d="M1320 1490 C1340 1490 1320 1540 1340 1540" style="fill:transparent;stroke:black" /><rect x="1406" y="1520" width="137" height="40" style="fill:green;stroke:black;stroke-width:1" /><text x="1416" y="1530" font-size="8" style="fill:white">"Oviedo"</text><rect x="1340" y="1570" width="200" height="40" style="fill:white;stroke:black;stroke-width:1" /><text x="1350" y="1580" font-size="10" style="fill:blue">coordenadas</text><path d="M1320 1490 C1340 1490 1320 1590 1340 1590" style="fill:transparent;stroke:black" /><text x="1350" y="1590" font-size="8" style="fill:black">nombre: Lugar de nacimiento</text><text x="1350" y="1600" font-size="8" style="fill:black">latitud: 6</text><text x="1350" y="1610" font-size="8" style="fill:black">longitud: 6</text><text x="1350" y="1620" font-size="8" style="fill:black">altitud: 1</text><rect x="1120" y="1670" width="200" height="40" style="fill:white;stroke:black;stroke-width:1" /><text x="1130" y="1680" font-size="10" style="fill:blue">retrato</text><path d="M1100 1290 C1120 1290 1100 1690 1120 1690" style="fill:transparent;stroke:black" /><text x="1130" y="1690" font-size="8" style="fill:black">filename: foto-manuel.jpg</text><rect x="1186" y="1670" width="137" height="40" style="fill:green;stroke:black;stroke-width:1" /><text x="1196" y="1680" font-size="8" style="fill:white">Retrato de Concepcion</text><rect x="460" y="1870" width="200" height="40" style="fill:white;stroke:black;stroke-width:1" /><text x="470" y="1880" font-size="10" style="fill:blue">familiar</text><path d="M440 40 C460 40 440 1890 460 1890" style="fill:transparent;stroke:black" /><text x="470" y="1890" font-size="8" style="fill:black">nombre: Angeles</text><text x="470" y="1900" font-size="8" style="fill:black">apellido: Suarez</text><rect x="680" y="1870" width="200" height="40" style="fill:white;stroke:black;stroke-width:1" /><text x="690" y="1880" font-size="10" style="fill:blue">dataFamiliar</text><path d="M660 1890 C680 1890 660 1890 680 1890" style="fill:transparent;stroke:black" /><rect x="900" y="1870" width="200" height="40" style="fill:white;stroke:black;stroke-width:1" /><text x="910" y="1880" font-size="10" style="fill:blue">nacimiento</text><path d="M880 1890 C900 1890 880 1890 900 1890" style="fill:transparent;stroke:black" /><rect x="1120" y="1870" width="200" height="40" style="fill:white;stroke:black;stroke-width:1" /><text x="1130" y="1880" font-size="10" style="fill:blue">fecha</text><path d="M1100 1890 C1120 1890 1100 1890 1120 1890" style="fill:transparent;stroke:black" /><text x="1130" y="1890" font-size="8" style="fill:black">nombre: Fecha de Nacimiento</text><rect x="1186" y="1870" width="137" height="40" style="fill:green;stroke:black;stroke-width:1" /><text x="1196" y="1880" font-size="8" style="fill:white"> 03/02/1975 </text><rect x="1120" y="1920" width="200" height="40" style="fill:white;stroke:black;stroke-width:1" /><text x="1130" y="1930" font-size="10" style="fill:blue">lugar</text><path d="M1100 1890 C1120 1890 1100 1940 1120 1940" style="fill:transparent;stroke:black" /><rect x="1186" y="1920" width="137" height="40" style="fill:green;stroke:black;stroke-width:1" /><text x="1196" y="1930" font-size="8" style="fill:white">"Gijon"</text><rect x="1120" y="1970" width="200" height="40" style="fill:white;stroke:black;stroke-width:1" /><text x="1130" y="1980" font-size="10" style="fill:blue">coordenadas</text><path d="M1100 1890 C1120 1890 1100 1990 1120 1990" style="fill:transparent;stroke:black" /><text x="1130" y="1990" font-size="8" style="fill:black">nombre: Lugar de nacimiento</text><text x="1130" y="2000" font-size="8" style="fill:black">latitud: 4</text><text x="1130" y="2010" font-size="8" style="fill:black">longitud: 5</text><text x="1130" y="2020" font-size="8" style="fill:black">altitud: 6</text><rect x="900" y="2070" width="200" height="40" style="fill:white;stroke:black;stroke-width:1" /><text x="910" y="2080" font-size="10" style="fill:blue">retrato</text><path d="M880 1890 C900 1890 880 2090 900 2090" style="fill:transparent;stroke:black" /><text x="910" y="2090" font-size="8" style="fill:black">filename: foto-angeles.jpg</text><rect x="966" y="2070" width="137" height="40" style="fill:green;stroke:black;stroke-width:1" /><text x="976" y="2080" font-size="8" style="fill:white">Retrato de Angles</text></svg>